<svg width="358" height="86" viewBox="0 0 358 86" fill="none" xmlns="http://www.w3.org/2000/svg">
<path d="M259.514 0L264.621 45.28L198.925 42.541L259.514 0Z" fill="#DA4C4D"/>
<path d="M318.065 77.326H-98.1011V23.353H357.123L344.848 57.258C341.367 69.152 330.458 77.326 318.065 77.326Z" fill="#21122B"/>
<path d="M259.514 0L232.51 57.315C224.471 74.377 207.305 85.266 188.444 85.266H31.6189V0H259.514Z" fill="url(#paint0_linear_629_452)"/>
<path d="M71.3089 36.8075L78.6627 44.1613L76.4585 46.3655L66.9004 36.8075L76.3382 27.3674C69.4874 27.8193 64.0682 33.5213 64.0682 40.4877C64.0682 45.437 66.8022 49.7473 70.8432 51.9873L68.6078 54.2226C64.0417 51.3529 61.0005 46.2676 61.0005 40.4877C61.0005 31.5463 68.2743 24.2704 77.2157 24.2725C77.9216 24.2725 78.6162 24.3169 79.2997 24.4061C80.5263 24.5642 81.7108 24.8603 82.8352 25.2788L71.3089 36.8075Z" fill="#F1EAE3"/>
<path d="M85.7921 26.7325L83.5567 28.9678C87.6133 31.2031 90.363 35.5247 90.363 40.4874C90.363 47.4652 84.9237 53.1759 78.0552 53.6078L87.4953 44.1654L77.9373 34.6073L75.733 36.8116L83.0868 44.1654L71.5562 55.6827C71.5605 55.685 71.5628 55.685 71.5672 55.6871C72.6916 56.1056 73.8738 56.404 75.0984 56.5644C75.7909 56.6557 76.4988 56.7024 77.2157 56.7024C86.1571 56.7024 93.431 49.4265 93.431 40.4874C93.431 34.6919 90.3764 29.5978 85.7921 26.7325Z" fill="#F1EAE3"/>
<path d="M82.8378 25.2791H82.8357L80.3911 27.7259H80.3932L82.8378 25.2791Z" fill="#F1EAE3"/>
<path d="M186.988 54.2858C186.988 54.1402 187.034 54.021 187.127 53.9283C187.226 53.829 187.349 53.7793 187.495 53.7793C187.647 53.7793 187.769 53.8257 187.862 53.9184C187.955 54.0111 188.001 54.1336 188.001 54.2858C188.001 54.4315 187.955 54.5507 187.862 54.6434C187.763 54.7427 187.64 54.7923 187.495 54.7923C187.349 54.7923 187.226 54.746 187.127 54.6533C187.034 54.554 186.988 54.4315 186.988 54.2858Z" fill="#F1EAE3"/>
<path d="M182.311 50.77C182.728 50.3264 183.274 50.1046 183.949 50.1046C184.605 50.1046 185.135 50.3264 185.538 50.77C185.942 51.2136 186.144 51.7797 186.144 52.4682V52.7265H182.549C182.595 53.1303 182.751 53.4547 183.016 53.6997C183.281 53.9447 183.612 54.0672 184.009 54.0672C184.585 54.0672 185.015 53.8619 185.3 53.4514L185.926 53.8983C185.489 54.5273 184.85 54.8418 184.009 54.8418C183.32 54.8418 182.761 54.62 182.331 54.1764C181.9 53.7262 181.685 53.1568 181.685 52.4682C181.685 51.7797 181.894 51.2136 182.311 50.77ZM182.549 52.1405H185.31C185.25 51.7433 185.101 51.4255 184.863 51.1871C184.625 50.9421 184.32 50.8197 183.949 50.8197C183.565 50.8197 183.248 50.9388 182.996 51.1772C182.751 51.4155 182.602 51.7366 182.549 52.1405Z" fill="#F1EAE3"/>
<path d="M175.962 52.4688C175.962 51.7802 176.167 51.2175 176.577 50.7805C176.995 50.3369 177.527 50.1151 178.176 50.1151C178.858 50.1151 179.381 50.3733 179.745 50.8897V48.2977H180.639V54.753H179.745V54.0479C179.381 54.5709 178.858 54.8324 178.176 54.8324C177.534 54.8324 177.004 54.6106 176.587 54.167C176.17 53.7168 175.962 53.1507 175.962 52.4688ZM176.836 52.4688C176.836 52.9124 176.968 53.2765 177.233 53.5612C177.504 53.8459 177.859 53.9883 178.296 53.9883C178.726 53.9883 179.073 53.8459 179.338 53.5612C179.61 53.2765 179.745 52.9124 179.745 52.4688C179.745 52.0252 179.613 51.6644 179.348 51.3863C179.083 51.1016 178.732 50.9592 178.296 50.9592C177.859 50.9592 177.504 51.1016 177.233 51.3863C176.968 51.6644 176.836 52.0252 176.836 52.4688Z" fill="#F1EAE3"/>
<path d="M171.061 50.7602C171.498 50.3166 172.061 50.0948 172.75 50.0948C173.432 50.0948 173.988 50.3166 174.418 50.7602C174.855 51.2038 175.074 51.7731 175.074 52.4683C175.074 53.1503 174.855 53.7164 174.418 54.1666C173.988 54.6168 173.432 54.8419 172.75 54.8419C172.061 54.8419 171.498 54.6168 171.061 54.1666C170.624 53.7164 170.406 53.1503 170.406 52.4683C170.406 51.7731 170.624 51.2038 171.061 50.7602ZM171.3 52.4683C171.3 52.9053 171.432 53.2695 171.697 53.5608C171.969 53.8455 172.319 53.9878 172.75 53.9878C173.174 53.9878 173.518 53.8455 173.783 53.5608C174.054 53.2695 174.19 52.9053 174.19 52.4683C174.19 52.0247 174.057 51.6639 173.793 51.3858C173.528 51.1011 173.18 50.9588 172.75 50.9588C172.319 50.9588 171.969 51.1011 171.697 51.3858C171.432 51.6639 171.3 52.0247 171.3 52.4683Z" fill="#F1EAE3"/>
<path d="M166.183 50.77C166.613 50.3264 167.169 50.1046 167.851 50.1046C168.659 50.1046 169.278 50.4125 169.708 51.0282L169.063 51.5248C168.798 51.1474 168.401 50.9587 167.871 50.9587C167.434 50.9587 167.08 51.1011 166.808 51.3858C166.537 51.6638 166.401 52.0247 166.401 52.4683C166.401 52.9119 166.537 53.276 166.808 53.5607C167.086 53.8454 167.441 53.9877 167.871 53.9877C168.387 53.9877 168.785 53.8024 169.063 53.4316L169.708 53.9083C169.278 54.5306 168.659 54.8418 167.851 54.8418C167.169 54.8418 166.61 54.62 166.173 54.1764C165.742 53.7262 165.527 53.1568 165.527 52.4683C165.527 51.7797 165.746 51.2136 166.183 50.77Z" fill="#F1EAE3"/>
<path d="M160.294 50.1839H161.188V51.0281C161.532 50.4322 162.068 50.1277 162.796 50.1144V50.9586C162.618 50.9586 162.445 50.9818 162.28 51.0281C162.114 51.0744 161.942 51.1473 161.764 51.2466C161.591 51.3459 161.452 51.4949 161.346 51.6935C161.24 51.8921 161.188 52.1305 161.188 52.4085V54.7523H160.294V50.1839Z" fill="#F1EAE3"/>
<path d="M154.988 50.1842H155.882V52.8656C155.882 53.2562 155.998 53.5542 156.229 53.7594C156.461 53.958 156.736 54.0573 157.054 54.0573C157.372 54.0573 157.643 53.958 157.868 53.7594C158.093 53.5542 158.206 53.2562 158.206 52.8656V50.1842H159.1V54.7525H158.206V54.2063C157.881 54.6234 157.411 54.832 156.796 54.832C156.299 54.832 155.872 54.6797 155.514 54.3751C155.163 54.0706 154.988 53.6104 154.988 52.9947V50.1842Z" fill="#F1EAE3"/>
<path d="M149.937 50.7602C150.374 50.3166 150.937 50.0948 151.626 50.0948C152.308 50.0948 152.864 50.3166 153.294 50.7602C153.731 51.2038 153.95 51.7731 153.95 52.4683C153.95 53.1503 153.731 53.7164 153.294 54.1666C152.864 54.6168 152.308 54.8419 151.626 54.8419C150.937 54.8419 150.374 54.6168 149.937 54.1666C149.5 53.7164 149.282 53.1503 149.282 52.4683C149.282 51.7731 149.5 51.2038 149.937 50.7602ZM150.176 52.4683C150.176 52.9053 150.308 53.2695 150.573 53.5608C150.844 53.8455 151.195 53.9878 151.626 53.9878C152.049 53.9878 152.394 53.8455 152.659 53.5608C152.93 53.2695 153.066 52.9053 153.066 52.4683C153.066 52.0247 152.933 51.6639 152.669 51.3858C152.404 51.1011 152.056 50.9588 151.626 50.9588C151.195 50.9588 150.844 51.1011 150.573 51.3858C150.308 51.6639 150.176 52.0247 150.176 52.4683Z" fill="#F1EAE3"/>
<path d="M145.719 54.0877H146.653L146.067 55.6469H145.392L145.719 54.0877Z" fill="#F1EAE3"/>
<path d="M141.179 50.1839V50.7401C141.503 50.323 141.973 50.1144 142.589 50.1144C143.086 50.1144 143.509 50.2667 143.86 50.5713C144.218 50.8692 144.396 51.326 144.396 51.9418V54.7523H143.503V52.0709C143.503 51.6802 143.387 51.3856 143.155 51.187C142.923 50.9818 142.649 50.8791 142.331 50.8791C142.013 50.8791 141.741 50.9818 141.516 51.187C141.291 51.3856 141.179 51.6802 141.179 52.0709V54.7523H140.285V50.1839H141.179Z" fill="#F1EAE3"/>
<path d="M135.234 50.7602C135.671 50.3166 136.234 50.0948 136.923 50.0948C137.605 50.0948 138.161 50.3166 138.591 50.7602C139.028 51.2038 139.247 51.7731 139.247 52.4683C139.247 53.1503 139.028 53.7164 138.591 54.1666C138.161 54.6168 137.605 54.8419 136.923 54.8419C136.234 54.8419 135.671 54.6168 135.234 54.1666C134.797 53.7164 134.579 53.1503 134.579 52.4683C134.579 51.7731 134.797 51.2038 135.234 50.7602ZM135.473 52.4683C135.473 52.9053 135.605 53.2695 135.87 53.5608C136.141 53.8455 136.492 53.9878 136.923 53.9878C137.346 53.9878 137.691 53.8455 137.955 53.5608C138.227 53.2695 138.363 52.9053 138.363 52.4683C138.363 52.0247 138.23 51.6639 137.965 51.3858C137.701 51.1011 137.353 50.9588 136.923 50.9588C136.492 50.9588 136.141 51.1011 135.87 51.3858C135.605 51.6639 135.473 52.0247 135.473 52.4683Z" fill="#F1EAE3"/>
<path d="M132.576 50.1848H133.47V54.7532H132.576V50.1848ZM132.656 48.4171C132.762 48.3244 132.884 48.278 133.023 48.278C133.162 48.278 133.281 48.3244 133.381 48.4171C133.487 48.5098 133.54 48.6322 133.54 48.7845C133.54 48.9368 133.487 49.0626 133.381 49.1619C133.275 49.2612 133.156 49.3109 133.023 49.3109C132.884 49.3109 132.762 49.2612 132.656 49.1619C132.55 49.0626 132.497 48.9368 132.497 48.7845C132.497 48.6322 132.55 48.5098 132.656 48.4171Z" fill="#F1EAE3"/>
<path d="M127.768 53.7993L128.394 53.402C128.467 53.594 128.632 53.7661 128.891 53.9184C129.149 54.0707 129.437 54.1468 129.755 54.1468C130.377 54.1468 130.688 53.9284 130.688 53.4914C130.688 53.4119 130.665 53.3391 130.619 53.2729C130.579 53.2001 130.532 53.1438 130.48 53.1041C130.433 53.0577 130.36 53.0147 130.261 52.975C130.162 52.9286 130.082 52.8955 130.023 52.8756L129.755 52.8061C129.635 52.773 129.563 52.7532 129.536 52.7465C129.523 52.7399 129.47 52.7267 129.377 52.7068C129.291 52.6803 129.222 52.6605 129.169 52.6472C129.122 52.6274 129.049 52.6009 128.95 52.5678C128.851 52.5281 128.771 52.4916 128.712 52.4585C128.652 52.4254 128.576 52.3824 128.483 52.3294C128.397 52.2765 128.328 52.2202 128.275 52.1606C128.222 52.101 128.169 52.0348 128.116 51.962C128.063 51.8891 128.023 51.8064 127.997 51.7137C127.97 51.621 127.957 51.5217 127.957 51.4158C127.957 50.9854 128.119 50.6577 128.444 50.4326C128.775 50.2008 129.198 50.085 129.715 50.085C130.165 50.085 130.549 50.1744 130.867 50.3531C131.191 50.5253 131.41 50.7471 131.522 51.0185L130.917 51.386C130.844 51.2271 130.688 51.088 130.45 50.9689C130.218 50.8497 129.963 50.7901 129.685 50.7901C129.407 50.7901 129.192 50.8431 129.04 50.949C128.894 51.0549 128.821 51.1973 128.821 51.376C128.821 51.4555 128.841 51.5283 128.881 51.5945C128.92 51.6541 128.963 51.7038 129.01 51.7435C129.056 51.7832 129.126 51.8229 129.218 51.8627C129.318 51.9024 129.397 51.9289 129.457 51.9421L129.705 52.0216C129.817 52.0547 129.89 52.0745 129.923 52.0812C129.93 52.0812 129.976 52.0944 130.062 52.1209C130.148 52.1474 130.211 52.1672 130.251 52.1805C130.291 52.1871 130.357 52.2103 130.45 52.25C130.542 52.2831 130.615 52.3129 130.668 52.3394C130.721 52.3658 130.791 52.4023 130.877 52.4486C130.969 52.495 131.042 52.5413 131.095 52.5876C131.148 52.634 131.208 52.6903 131.274 52.7565C131.34 52.8161 131.39 52.8823 131.423 52.9551C131.456 53.0213 131.486 53.1008 131.512 53.1934C131.539 53.2795 131.552 53.3689 131.552 53.4616C131.552 53.9184 131.393 54.2693 131.075 54.5143C130.764 54.7593 130.321 54.8818 129.745 54.8818C129.235 54.8818 128.808 54.7824 128.463 54.5838C128.119 54.3786 127.887 54.1171 127.768 53.7993Z" fill="#F1EAE3"/>
<path d="M125.866 50.1848H126.76V54.7532H125.866V50.1848ZM125.946 48.4171C126.052 48.3244 126.174 48.278 126.313 48.278C126.452 48.278 126.571 48.3244 126.671 48.4171C126.777 48.5098 126.83 48.6323 126.83 48.7845C126.83 48.9368 126.777 49.0626 126.671 49.1619C126.565 49.2612 126.446 49.3109 126.313 49.3109C126.174 49.3109 126.052 49.2612 125.946 49.1619C125.84 49.0626 125.787 48.9368 125.787 48.7845C125.787 48.6323 125.84 48.5098 125.946 48.4171Z" fill="#F1EAE3"/>
<path d="M120.492 50.1842H121.425L122.736 53.5409L124.057 50.1842H124.991L123.173 54.7525H122.289L120.492 50.1842Z" fill="#F1EAE3"/>
<path d="M115.506 50.1839H116.399V51.0281C116.744 50.4322 117.28 50.1277 118.008 50.1144V50.9586C117.83 50.9586 117.657 50.9818 117.492 51.0281C117.326 51.0744 117.154 51.1473 116.975 51.2466C116.803 51.3459 116.664 51.4949 116.558 51.6935C116.452 51.8921 116.399 52.1305 116.399 52.4085V54.7523H115.506V50.1839Z" fill="#F1EAE3"/>
<path d="M110.201 50.1842H111.095V52.8656C111.095 53.2562 111.211 53.5542 111.442 53.7594C111.674 53.958 111.949 54.0573 112.267 54.0573C112.584 54.0573 112.856 53.958 113.081 53.7594C113.306 53.5542 113.419 53.2562 113.419 52.8656V50.1842H114.312V54.7525H113.419V54.2063C113.094 54.6234 112.624 54.832 112.008 54.832C111.512 54.832 111.085 54.6797 110.727 54.3751C110.376 54.0706 110.201 53.6104 110.201 52.9947V50.1842Z" fill="#F1EAE3"/>
<path d="M105.151 50.7602C105.588 50.3166 106.15 50.0948 106.839 50.0948C107.521 50.0948 108.077 50.3166 108.507 50.7602C108.944 51.2038 109.163 51.7732 109.163 52.4683C109.163 53.1503 108.944 53.7164 108.507 54.1666C108.077 54.6168 107.521 54.8419 106.839 54.8419C106.15 54.8419 105.588 54.6168 105.151 54.1666C104.714 53.7164 104.495 53.1503 104.495 52.4683C104.495 51.7732 104.714 51.2038 105.151 50.7602ZM105.389 52.4683C105.389 52.9053 105.521 53.2695 105.786 53.5608C106.058 53.8455 106.409 53.9878 106.839 53.9878C107.263 53.9878 107.607 53.8455 107.872 53.5608C108.143 53.2695 108.279 52.9053 108.279 52.4683C108.279 52.0248 108.146 51.6639 107.882 51.3858C107.617 51.1012 107.269 50.9588 106.839 50.9588C106.409 50.9588 106.058 51.1012 105.786 51.3858C105.521 51.6639 105.389 52.0248 105.389 52.4683Z" fill="#F1EAE3"/>
<path d="M100.286 48.2977L101.975 50.989L103.673 48.2977H104.746L102.451 51.9424V54.753H101.518V51.9623L99.2139 48.2977H100.286Z" fill="#F1EAE3"/>
<path d="M157.764 39.1737L155.975 33.8197H158.538L159.501 36.6939L161.511 33.8197H164.074L160.327 39.1737L162.17 44.702H159.615L158.598 41.6535L156.468 44.702H153.912L157.764 39.1737Z" fill="#F1EAE3"/>
<path d="M150.576 44.7023L152.669 33.8276H155.232L153.132 44.7023H150.576Z" fill="#F1EAE3"/>
<path d="M142.052 44.702L144.152 33.8197H146.715L148.285 39.3481L149.354 33.8197H151.918L149.817 44.702H147.254L145.676 39.1812L144.615 44.702H142.052Z" fill="#F1EAE3"/>
<path d="M133.619 44.7023L135.72 33.8276H143.386L142.962 36.0268H137.858L137.441 38.1653H140.004L139.58 40.3645H137.016L136.607 42.5031H141.718L141.293 44.7023H133.619Z" fill="#F1EAE3"/>
<path d="M126.984 36.0189L127.408 33.8197H135.075L129.229 42.5028H133.286L132.861 44.702H125.187L131.033 36.0189H126.984Z" fill="#F1EAE3"/>
<path d="M115.346 31.2095L113.626 27.792H127.26L126.6 31.2095H122.7L120.095 44.7025H116.124L118.717 31.2095H115.346Z" fill="#F1EAE3"/>
<path d="M101.995 30.2667L100.769 27.792H107.098C110.008 27.792 113.885 29.2297 113.885 34.4266C113.885 37.0191 112.683 40.2009 110.385 42.3338C108.83 43.7715 106.768 44.7025 104.21 44.7025H99.2139L101.995 30.2667ZM106.827 31.2095H105.801L103.857 41.285H104.87C105.966 41.285 107.263 40.5898 108.335 39.3878C109.407 38.1858 110.161 36.536 110.161 34.5916C110.161 32.93 109.478 31.9755 108.465 31.5394C107.958 31.3155 107.404 31.2095 106.827 31.2095Z" fill="#F1EAE3"/>
<defs>
<linearGradient id="paint0_linear_629_452" x1="262.631" y1="117.156" x2="38.0935" y2="-81.6058" gradientUnits="userSpaceOnUse">
<stop stop-color="#FF5A16"/>
<stop offset="1" stop-color="#651FFF"/>
</linearGradient>
</defs>
</svg>
